# xmcd
# 
# Track frame offsets:
#     150
#     28692
#     46152
#     68785
#     102583
#     127867
#     148193
#     156027
#     184117
#     198596
#     228650
#     236888
#     272665
#     319294
# 
# Disc length: 4345
# 
# Revision: 0
# Processed by: cddbd v1.5.2PL0 Copyright (c) Steve Scherf et al.
# Submitted via: BonkEnc v1.0.8
# 
DISCID=ce10f70e
DTITLE=DZEM - Przystanek Woodstock CD 1
DYEAR=2009
DGENRE=Blues
TTITLE0=Wehikuł Czasu
TTITLE1=Poznalem go po czarnym kapeluszu
TTITLE2=to tylko dwa piwa
TTITLE3=Cała w trawie
TTITLE4=Ćma Barowa
TTITLE5=Gorszy Dzień
TTITLE6=Gaduła Jurka
TTITLE7=Sen o Viktorii
TTITLE8=Diabelski Żart
TTITLE9=Harley Mój
TTITLE10=Gaduła Jurka
TTITLE11=Czerwony Jak Cegła
TTITLE12=Whisky
TTITLE13=Finał Koncertu
EXTD=
EXTT0=
EXTT1=
EXTT2=
EXTT3=
EXTT4=
EXTT5=
EXTT6=
EXTT7=
EXTT8=
EXTT9=
EXTT10=
EXTT11=
EXTT12=
EXTT13=
PLAYORDER=
